<?xml version="1.0" encoding="UTF-8"?>
<svg version="1.1" xmlns="http://www.w3.org/2000/svg" width="24" height="33">
<path d="M0 0 C1.04994141 -0.08121094 1.04994141 -0.08121094 2.12109375 -0.1640625 C6.40104209 -0.27522999 9.03916909 0.495443 12.359375 3.26171875 C16.7305791 8.190417 16.26305224 13.53306735 16 19.8125 C15.99355469 20.90884766 15.98710937 22.00519531 15.98046875 23.13476562 C15.85691055 29.02558472 15.85691055 29.02558472 15.375 31.5 C12.32526315 33.5331579 11.68543132 33.7548508 8.25 33.765625 C7.46109375 33.76820312 6.6721875 33.77078125 5.859375 33.7734375 C5.03953125 33.76570313 4.2196875 33.75796875 3.375 33.75 C2.14523437 33.76160156 2.14523437 33.76160156 0.890625 33.7734375 C0.10171875 33.77085938 -0.6871875 33.76828125 -1.5 33.765625 C-2.21929688 33.76336914 -2.93859375 33.76111328 -3.6796875 33.75878906 C-5.625 33.5 -5.625 33.5 -8.625 31.5 C-8.98144531 28.53491211 -8.98144531 28.53491211 -8.953125 24.77734375 C-8.95125183 24.11666397 -8.94937866 23.45598419 -8.94744873 22.77528381 C-8.9407261 21.37902783 -8.92680717 19.98279075 -8.90625 18.58666992 C-8.8750708 16.44236886 -8.86527799 14.29880221 -8.859375 12.15429688 C-8.779026 0.28167998 -8.779026 0.28167998 0 0 Z M-5.625 4.5 C-5.65182614 8.47921094 -5.67175393 12.45824341 -5.6875 16.4375 C-5.69587891 17.57380859 -5.70425781 18.71011719 -5.71289062 19.88085938 C-5.71611328 20.96044922 -5.71933594 22.04003906 -5.72265625 23.15234375 C-5.72789307 24.15257568 -5.73312988 25.15280762 -5.73852539 26.18334961 C-5.88681095 28.46207228 -5.88681095 28.46207228 -4.625 29.5 C-1.9476862 29.59981214 0.69804175 29.63879875 3.375 29.625 C4.50035156 29.63080078 4.50035156 29.63080078 5.6484375 29.63671875 C9.31106117 29.97675541 9.31106117 29.97675541 12.375 28.5 C12.44825168 25.63732433 12.46738205 22.799281 12.4375 19.9375 C12.43298828 19.13119141 12.42847656 18.32488281 12.42382812 17.49414062 C12.41200518 15.49606244 12.39406914 13.49802217 12.375 11.5 C9.405 11.005 9.405 11.005 6.375 10.5 C6.045 8.52 5.715 6.54 5.375 4.5 C1.745 4.5 -1.885 4.5 -5.625 4.5 Z " fill="#53A9CF" transform="translate(8.625,-0.5)"/>
</svg>
