<svg width="34" height="33" viewBox="0 0 34 33" fill="none" xmlns="http://www.w3.org/2000/svg">
<path d="M17 32.207C11.25 32.207 6 29.207 3.125 24.207C0.25 19.2695 0.25 13.207 3.125 8.20703C6 3.26953 11.25 0.207031 17 0.207031C22.6875 0.207031 27.9375 3.26953 30.8125 8.20703C33.6875 13.207 33.6875 19.2695 30.8125 24.207C27.9375 29.207 22.6875 32.207 17 32.207ZM24.0625 13.2695H24C24.625 12.707 24.625 11.7695 24 11.1445C23.4375 10.582 22.5 10.582 21.9375 11.1445L15 18.1445L12.0625 15.207C11.4375 14.582 10.5 14.582 9.9375 15.207C9.3125 15.7695 9.3125 16.707 9.9375 17.2695L13.9375 21.2695C14.5 21.8945 15.4375 21.8945 16.0625 21.2695L24.0625 13.2695Z" fill="#00FF19"/>
</svg>
