<svg width="34" height="32" viewBox="0 0 34 32" fill="none" xmlns="http://www.w3.org/2000/svg">
<path d="M17 32C11.25 32 6 29 3.125 24C0.25 19.0625 0.25 13 3.125 8C6 3.0625 11.25 0 17 0C22.6875 0 27.9375 3.0625 30.8125 8C33.6875 13 33.6875 19.0625 30.8125 24C27.9375 29 22.6875 32 17 32ZM11.9375 10.9375C11.3125 11.5625 11.3125 12.5 11.9375 13.0625L14.875 16L11.9375 18.9375C11.3125 19.5625 11.3125 20.5 11.9375 21.0625C12.5 21.6875 13.4375 21.6875 14 21.0625L16.9375 18.125L19.875 21.0625C20.5 21.6875 21.4375 21.6875 22 21.0625C22.625 20.5 22.625 19.5625 22 18.9375L19.0625 16L22 13.0625C22.625 12.5 22.625 11.5625 22 10.9375C21.4375 10.375 20.5 10.375 19.875 10.9375L16.9375 13.875L14 10.9375C13.4375 10.375 12.5 10.375 11.9375 10.9375Z" fill="#FF0000"/>
</svg>
