<svg width="320" height="208" viewBox="0 0 320 208" fill="none" xmlns="http://www.w3.org/2000/svg">
<g clip-path="url(#clip0_2316_73290)">
<path d="M275.456 136.976L274.854 137.042L282.281 204.592L282.882 204.526L275.456 136.976Z" fill="#292A2E"/>
<path d="M294.69 166.466L291.037 202.441L291.639 202.502L295.292 166.526L294.69 166.466Z" fill="#292A2E"/>
<path d="M300.972 198.093H273.864V206.85H300.972V198.093Z" fill="#292A2E"/>
<path opacity="0.2" d="M300.972 198.093H273.864V206.85H300.972V198.093Z" fill="white"/>
<path d="M317.314 181.969C322.449 175.175 320.001 164.716 311.846 158.609C303.69 152.501 292.916 153.057 287.781 159.85C282.646 166.644 285.094 177.103 293.249 183.21C301.404 189.318 312.179 188.762 317.314 181.969Z" fill="#0CBC8B"/>
<path opacity="0.2" d="M317.314 181.969C322.449 175.175 320.001 164.716 311.846 158.609C303.69 152.501 292.916 153.057 287.781 159.85C282.646 166.644 285.094 177.103 293.249 183.21C301.404 189.318 312.179 188.762 317.314 181.969Z" fill="white"/>
<path opacity="0.5" d="M317.313 181.97C316.968 182.428 316.592 182.862 316.187 183.268C310.534 186.864 302.19 186.298 295.571 181.339C287.416 175.233 284.969 164.774 290.105 157.98C290.45 157.523 290.825 157.089 291.228 156.681C296.885 153.084 305.225 153.653 311.847 158.609C320.001 164.718 322.449 175.176 317.313 181.97Z" fill="white"/>
<path d="M279.483 156.195C287.562 149.988 289.758 139.342 284.388 132.417C279.018 125.492 268.115 124.91 260.036 131.118C251.957 137.325 249.761 147.971 255.131 154.896C260.502 161.821 271.404 162.403 279.483 156.195Z" fill="#0CBC8B"/>
<path opacity="0.2" d="M276.923 154.413C270.666 159.223 262.715 159.956 256.951 156.825C256.284 156.24 255.675 155.593 255.132 154.893C249.76 147.969 251.956 137.322 260.035 131.116C266.291 126.309 274.243 125.573 280.004 128.701C280.672 129.287 281.282 129.935 281.826 130.637C287.197 137.56 285.001 148.207 276.923 154.413Z" fill="white"/>
<path d="M224.221 98.8558L317.141 98.9925V64.7549H224.221V98.8558Z" fill="#EFEFEF"/>
<path d="M309.141 74.2509H232.221C232.183 74.2521 232.145 74.2457 232.11 74.2321C232.074 74.2184 232.042 74.1978 232.014 74.1714C231.987 74.1451 231.965 74.1135 231.951 74.0786C231.936 74.0437 231.928 74.0062 231.928 73.9683C231.928 73.9304 231.936 73.8929 231.951 73.858C231.965 73.8231 231.987 73.7915 232.014 73.7651C232.042 73.7388 232.074 73.7181 232.11 73.7045C232.145 73.6909 232.183 73.6845 232.221 73.6857H309.141C309.179 73.6845 309.217 73.6909 309.252 73.7045C309.288 73.7181 309.32 73.7388 309.347 73.7651C309.375 73.7915 309.396 73.8231 309.411 73.858C309.426 73.8929 309.434 73.9304 309.434 73.9683C309.434 74.0062 309.426 74.0437 309.411 74.0786C309.396 74.1135 309.375 74.1451 309.347 74.1714C309.32 74.1978 309.288 74.2184 309.252 74.2321C309.217 74.2457 309.179 74.2521 309.141 74.2509Z" fill="white"/>
<path d="M309.141 82.7303H232.221C232.183 82.7316 232.145 82.7252 232.11 82.7115C232.074 82.6979 232.042 82.6773 232.014 82.6509C231.987 82.6246 231.965 82.593 231.951 82.5581C231.936 82.5232 231.928 82.4857 231.928 82.4478C231.928 82.4099 231.936 82.3723 231.951 82.3374C231.965 82.3025 231.987 82.271 232.014 82.2446C232.042 82.2182 232.074 82.1976 232.11 82.184C232.145 82.1703 232.183 82.164 232.221 82.1652H309.141C309.179 82.164 309.217 82.1703 309.252 82.184C309.288 82.1976 309.32 82.2182 309.347 82.2446C309.375 82.271 309.396 82.3025 309.411 82.3374C309.426 82.3723 309.434 82.4099 309.434 82.4478C309.434 82.4857 309.426 82.5232 309.411 82.5581C309.396 82.593 309.375 82.6246 309.347 82.6509C309.32 82.6773 309.288 82.6979 309.252 82.7115C309.217 82.7252 309.179 82.7316 309.141 82.7303Z" fill="white"/>
<path d="M309.141 91.211H263.458C263.383 91.211 263.311 91.1812 263.257 91.1282C263.204 91.0751 263.174 91.0032 263.174 90.9282C263.174 90.8533 263.204 90.7813 263.257 90.7283C263.311 90.6753 263.383 90.6455 263.458 90.6455H309.141C309.216 90.6455 309.288 90.6753 309.342 90.7283C309.395 90.7813 309.425 90.8533 309.425 90.9282C309.425 91.0032 309.395 91.0751 309.342 91.1282C309.288 91.1812 309.216 91.211 309.141 91.211Z" fill="white"/>
<path d="M113.354 44.9037L0.90625 44.9311L0.91472 0.208008H113.354V44.9037Z" fill="#EFEFEF"/>
<path d="M104.956 10.1041H9.31263C9.2527 10.1041 9.19523 10.0804 9.15285 10.0383C9.11048 9.99608 9.08667 9.93887 9.08667 9.87922C9.08667 9.81956 9.11048 9.76236 9.15285 9.72017C9.19523 9.67799 9.2527 9.6543 9.31263 9.6543H104.956C105.016 9.6543 105.073 9.67799 105.116 9.72017C105.158 9.76236 105.182 9.81956 105.182 9.87922C105.182 9.93887 105.158 9.99608 105.116 10.0383C105.073 10.0804 105.016 10.1041 104.956 10.1041Z" fill="white"/>
<path d="M104.956 19.0045H9.31263C9.2527 19.0045 9.19523 18.9808 9.15285 18.9387C9.11048 18.8965 9.08667 18.8393 9.08667 18.7796C9.08667 18.72 9.11048 18.6627 9.15285 18.6206C9.19523 18.5784 9.2527 18.5547 9.31263 18.5547H104.956C105.016 18.5547 105.073 18.5784 105.116 18.6206C105.158 18.6627 105.182 18.72 105.182 18.7796C105.182 18.8393 105.158 18.8965 105.116 18.9387C105.073 18.9808 105.016 19.0045 104.956 19.0045Z" fill="white"/>
<path d="M104.956 27.9059H9.31263C9.2527 27.9059 9.19523 27.8822 9.15285 27.84C9.11048 27.7978 9.08667 27.7406 9.08667 27.681C9.08667 27.6213 9.11048 27.5641 9.15285 27.5219C9.19523 27.4798 9.2527 27.4561 9.31263 27.4561H104.956C105.016 27.4561 105.073 27.4798 105.116 27.5219C105.158 27.5641 105.182 27.6213 105.182 27.681C105.182 27.7406 105.158 27.7978 105.116 27.84C105.073 27.8822 105.016 27.9059 104.956 27.9059Z" fill="white"/>
<path d="M57.264 36.8073H9.31263C9.2527 36.8073 9.19523 36.7836 9.15285 36.7414C9.11048 36.6992 9.08667 36.642 9.08667 36.5823C9.08667 36.5227 9.11048 36.4655 9.15285 36.4233C9.19523 36.3811 9.2527 36.3574 9.31263 36.3574H57.264C57.3239 36.3574 57.3814 36.3811 57.4237 36.4233C57.4661 36.4655 57.4899 36.5227 57.4899 36.5823C57.4899 36.642 57.4661 36.6992 57.4237 36.7414C57.3814 36.7836 57.3239 36.8073 57.264 36.8073Z" fill="white"/>
<path d="M266.046 21.2246H61.9557C56.9438 21.2246 52.8809 25.2688 52.8809 30.2576V178.993C52.8809 183.982 56.9438 188.026 61.9557 188.026H266.046C271.058 188.026 275.121 183.982 275.121 178.993V30.2576C275.121 25.2688 271.058 21.2246 266.046 21.2246Z" fill="white"/>
<path d="M266.046 188.327H61.956C59.4698 188.324 57.0863 187.34 55.3283 185.59C53.5703 183.84 52.5814 181.468 52.5786 178.993V30.2579C52.5815 27.7832 53.5704 25.4107 55.3284 23.6609C57.0863 21.911 59.4698 20.9267 61.956 20.9238H266.046C268.532 20.9266 270.915 21.9109 272.673 23.6608C274.431 25.4107 275.42 27.7832 275.423 30.2579V178.993C275.42 181.468 274.431 183.84 272.673 185.59C270.915 187.34 268.532 188.325 266.046 188.327ZM61.956 21.526C59.6302 21.5286 57.4004 22.4494 55.7558 24.0863C54.1112 25.7233 53.1862 27.9428 53.1836 30.2579V178.993C53.1862 181.308 54.1112 183.528 55.7558 185.165C57.4004 186.802 59.6302 187.722 61.956 187.725H266.046C268.371 187.722 270.601 186.802 272.246 185.165C273.89 183.528 274.815 181.308 274.818 178.993V30.2579C274.815 27.9428 273.89 25.7233 272.246 24.0863C270.601 22.4494 268.371 21.5286 266.046 21.526H61.956Z" fill="#292A2E"/>
<path d="M275.12 30.2576V39.3471H52.8818V30.2576C52.8818 27.8619 53.8379 25.5643 55.5398 23.8703C57.2417 22.1763 59.5499 21.2246 61.9567 21.2246H266.045C268.452 21.2246 270.761 22.1763 272.462 23.8703C274.164 25.5643 275.12 27.8619 275.12 30.2576Z" fill="#53AAD0"/>
<path opacity="0.2" d="M148.651 112.783H115.783C111.636 112.783 108.274 116.13 108.274 120.257C108.274 124.385 111.636 127.732 115.783 127.732H148.651C152.798 127.732 156.16 124.385 156.16 120.257C156.16 116.13 152.798 112.783 148.651 112.783Z" fill="#0A0A0A"/>
<path opacity="0.2" d="M211.78 112.783H178.913C174.766 112.783 171.404 116.13 171.404 120.257C171.404 124.385 174.766 127.732 178.913 127.732H211.78C215.927 127.732 219.289 124.385 219.289 120.257C219.289 116.13 215.927 112.783 211.78 112.783Z" fill="#0A0A0A"/>
<path opacity="0.1" d="M253.17 79.3865C253.171 81.2712 252.798 83.1376 252.074 84.879C251.349 86.6204 250.287 88.2027 248.949 89.5355C247.61 90.8684 246.02 91.9257 244.271 92.6471C242.522 93.3685 240.647 93.7398 238.753 93.7399H94.959C93.0655 93.7399 91.1906 93.3687 89.4413 92.6474C87.692 91.9262 86.1025 90.869 84.7636 89.5363C83.4247 88.2036 82.3627 86.6215 81.6381 84.8802C80.9135 83.139 80.5405 81.2727 80.5405 79.388C80.5405 77.5033 80.9135 75.637 81.6381 73.8958C82.3627 72.1545 83.4247 70.5724 84.7636 69.2397C86.1025 67.907 87.692 66.8499 89.4413 66.1286C91.1906 65.4074 93.0655 65.0361 94.959 65.0361H238.753C242.577 65.0363 246.244 66.5483 248.948 69.2394C251.651 71.9306 253.17 75.5806 253.17 79.3865Z" fill="#0A0A0A"/>
<path d="M253.169 79.3865C253.17 81.2712 252.797 83.1376 252.073 84.879C251.348 86.6204 250.286 88.2027 248.948 89.5355C247.609 90.8684 246.019 91.9257 244.27 92.6471C242.521 93.3685 240.646 93.7398 238.752 93.7399H216.416V65.0361H238.752C242.576 65.0363 246.243 66.5483 248.946 69.2394C251.65 71.9306 253.169 75.5806 253.169 79.3865Z" fill="#53AAD0"/>
<path d="M100.632 83.8959L99.168 79.2352C99.0758 78.9499 98.9035 78.3024 98.651 77.2925H98.5927C98.3985 78.1382 98.2286 78.7906 98.083 79.2496L96.5756 83.8959H95.1775L92.9995 75.9517H94.2664C94.7808 77.9474 95.1728 79.4671 95.4425 80.5109C95.6377 81.2039 95.7922 81.9077 95.905 82.6186H95.9631C96.0167 82.3432 96.1029 81.9868 96.2217 81.5494C96.3405 81.112 96.4436 80.7654 96.5312 80.5094L97.9949 75.9502H99.3056L100.733 80.5094C100.967 81.1939 101.152 81.8939 101.286 82.6042H101.345C101.383 82.3334 101.435 82.0648 101.501 81.7996C101.586 81.4371 102.092 79.4873 103.02 75.9502H104.272L102.064 83.8944L100.632 83.8959Z" fill="#0A0A0A"/>
<path d="M112.829 83.8959L111.365 79.2352C111.273 78.9499 111.1 78.3024 110.848 77.2925H110.79C110.596 78.1382 110.426 78.7906 110.28 79.2496L108.773 83.8959H107.374L105.197 75.9517H106.464C106.978 77.9474 107.37 79.4671 107.64 80.5109C107.835 81.2039 107.989 81.9077 108.102 82.6186H108.16C108.214 82.3432 108.3 81.9868 108.419 81.5494C108.538 81.112 108.641 80.7654 108.728 80.5094L110.192 75.9502H111.503L112.93 80.5094C113.164 81.1939 113.349 81.8938 113.484 82.6042H113.542C113.58 82.3334 113.632 82.0648 113.698 81.7996C113.783 81.4371 114.289 79.4873 115.217 75.9502H116.469L114.263 83.8944L112.829 83.8959Z" fill="#0A0A0A"/>
<path d="M125.026 83.8959L123.562 79.2352C123.47 78.9499 123.297 78.3024 123.045 77.2925H122.987C122.793 78.1382 122.623 78.7906 122.477 79.2496L120.968 83.8959H119.57L117.392 75.9517H118.659C119.174 77.9474 119.566 79.4671 119.835 80.5109C120.031 81.2039 120.185 81.9077 120.298 82.6186H120.356C120.41 82.3432 120.496 81.9868 120.615 81.5494C120.733 81.112 120.837 80.7654 120.924 80.5094L122.388 75.9502H123.699L125.128 80.5115C125.361 81.196 125.546 81.896 125.681 82.6063H125.739C125.777 82.3355 125.829 82.0669 125.896 81.8017C125.981 81.4392 126.487 79.4894 127.414 75.9523H128.667L126.459 83.8965L125.026 83.8959Z" fill="#0A0A0A"/>
<path d="M231.317 83.3795C229.622 83.3809 227.983 82.7771 226.698 81.6777C225.412 80.5783 224.566 79.0564 224.312 77.3885C224.059 75.7207 224.414 74.0176 225.315 72.5887C226.216 71.1599 227.602 70.1002 229.221 69.6021C230.84 69.1041 232.585 69.2009 234.139 69.8748C235.692 70.5488 236.951 71.7551 237.687 73.2747C238.423 74.7943 238.587 76.5262 238.148 78.1557C237.71 79.7853 236.699 81.2042 235.299 82.1546C234.125 82.9514 232.738 83.3782 231.317 83.3795ZM231.295 70.7857C229.859 70.7865 228.479 71.3377 227.44 72.3248C226.402 73.3118 225.786 74.659 225.719 76.0866C225.652 77.5142 226.14 78.9125 227.082 79.9913C228.024 81.07 229.347 81.7464 230.776 81.8798C232.206 82.0133 233.632 81.5937 234.759 80.708C235.886 79.8224 236.627 78.5389 236.828 77.1238C237.029 75.7088 236.675 74.271 235.839 73.109C235.003 71.9469 233.75 71.1499 232.34 70.8833C231.995 70.8185 231.645 70.7859 231.295 70.7857Z" fill="white"/>
<path d="M241.753 89.495C241.642 89.4952 241.533 89.4711 241.433 89.4246C241.333 89.3781 241.244 89.3102 241.173 89.2258L234.866 81.7354C234.738 81.5824 234.675 81.3847 234.693 81.1858C234.71 80.9869 234.806 80.8031 234.96 80.6749C235.114 80.5466 235.312 80.4844 235.512 80.5019C235.712 80.5194 235.897 80.6152 236.026 80.7682L242.332 88.2587C242.425 88.3684 242.484 88.5022 242.503 88.6442C242.521 88.7862 242.499 88.9306 242.438 89.0604C242.377 89.1902 242.28 89.3 242.159 89.377C242.038 89.454 241.897 89.4949 241.753 89.495Z" fill="white"/>
<path d="M11.3425 190.924C9.51482 190.924 7.71427 190.484 6.09409 189.642C4.47392 188.801 3.08209 187.581 2.0371 186.089C0.992116 184.596 0.324906 182.875 0.0922704 181.07C-0.140365 179.266 0.0684638 177.432 0.70098 175.725C1.34257 173.993 16.4528 133.204 19.3178 125.854L40.4689 134.021C38.8581 138.154 33.0218 153.817 28.3331 166.435L36.1226 165.592L38.5744 188.042L12.57 190.856C12.1624 190.901 11.7526 190.924 11.3425 190.924Z" fill="#53AAD0"/>
<path d="M24.9366 189.769L21.4775 206.907H88.6616L84.7917 189.443L24.9366 189.769Z" fill="#4D4A58"/>
<path d="M39.4628 113.18C33.8497 113.595 28.1262 115.41 23.9115 119.124C17.5546 124.724 18.1202 128.226 21.2937 143.737C24.024 157.083 22.9411 162.915 24.7676 187.542C24.8214 188.268 24.9367 189.769 24.9367 189.769L84.9821 189.669C84.9821 189.669 90.6085 156.995 93.7148 141.925C96.077 130.468 102.282 116.559 76.1205 113.756C76.0515 113.749 55.0695 112.028 39.4628 113.18Z" fill="#53AAD0"/>
<path d="M162.443 100.826C159.614 100.825 156.858 99.9393 154.563 98.2933C152.268 96.6474 150.551 94.3249 149.655 91.6545C148.759 88.9841 148.73 86.1008 149.57 83.4126C150.411 80.7244 152.08 78.3674 154.34 76.6749C156.6 74.9824 159.338 74.0402 162.166 73.9814C164.994 73.9227 167.769 74.7505 170.098 76.3477C172.427 77.9449 174.193 80.2306 175.145 82.8815C176.098 85.5325 176.189 88.4145 175.406 91.1198C174.592 93.9165 172.888 96.3747 170.551 98.125C168.213 99.8754 165.368 100.823 162.443 100.826ZM162.433 76.9856C159.778 76.984 157.222 77.9843 155.278 79.7849C153.335 81.5855 152.15 84.0525 151.962 86.6885C151.774 89.3244 152.596 91.9334 154.264 93.9894C155.932 96.0454 158.321 97.3955 160.95 97.7676C163.578 98.1396 166.251 97.506 168.428 95.9943C170.606 94.4826 172.127 92.2054 172.684 89.6217C173.242 87.038 172.795 84.3399 171.433 82.0715C170.071 79.8031 167.896 78.1329 165.345 77.3978C164.399 77.1252 163.419 76.9865 162.433 76.9856Z" fill="#0A0A0A"/>
<path d="M151.054 117.37C150.807 117.37 150.564 117.309 150.346 117.194C150.128 117.079 149.941 116.912 149.803 116.709C149.664 116.505 149.578 116.271 149.551 116.027C149.524 115.782 149.558 115.535 149.65 115.307L156.529 98.1268C156.682 97.762 156.973 97.4715 157.338 97.3182C157.704 97.1648 158.116 97.1608 158.485 97.3071C158.854 97.4533 159.15 97.738 159.31 98.0998C159.47 98.4616 159.48 98.8714 159.339 99.2408L152.46 116.421C152.348 116.701 152.154 116.941 151.903 117.11C151.653 117.279 151.357 117.37 151.054 117.37Z" fill="#0A0A0A"/>
<path d="M145.788 115.485L150.006 106.066C150.099 105.859 150.234 105.674 150.403 105.521C150.571 105.369 150.77 105.254 150.986 105.182C151.202 105.111 151.431 105.085 151.657 105.106C151.884 105.127 152.104 105.195 152.302 105.305C152.663 105.521 152.931 105.862 153.054 106.262C153.176 106.663 153.145 107.094 152.966 107.473L152.062 109.493L157.835 104.441C158.467 103.869 159.611 103.568 160.21 104.316C160.459 104.589 160.608 104.938 160.632 105.306C160.657 105.674 160.555 106.039 160.344 106.342C160.351 106.347 160.358 106.352 160.363 106.358C160.367 106.363 160.37 106.369 160.373 106.375L161.348 105.491C161.528 105.328 161.743 105.206 161.977 105.136C162.211 105.066 162.457 105.048 162.698 105.085C162.94 105.121 163.17 105.211 163.372 105.347C163.574 105.483 163.743 105.663 163.867 105.872C164.055 106.206 164.122 106.594 164.057 106.972C163.992 107.349 163.799 107.693 163.51 107.945L163.095 108.321C163.1 108.338 163.103 108.356 163.102 108.373C163.441 108.184 163.837 108.121 164.219 108.196C164.601 108.271 164.943 108.478 165.185 108.781C165.441 109.121 165.558 109.543 165.514 109.965C165.469 110.387 165.267 110.776 164.947 111.056L163.917 111.989C163.941 111.986 163.966 111.989 163.988 111.997C164.011 112.005 164.031 112.019 164.047 112.036C164.066 112.058 164.077 112.085 164.081 112.113C164.43 112.028 164.798 112.06 165.127 112.203C165.457 112.347 165.73 112.594 165.904 112.906C166.081 113.239 166.14 113.621 166.072 113.991C166.003 114.361 165.811 114.697 165.527 114.944L156.834 122.821C155.618 123.923 154.099 124.639 152.472 124.876C150.845 125.113 149.184 124.861 147.701 124.152C146.423 123.541 145.435 122.458 144.946 121.133C144.458 119.808 144.507 118.345 145.085 117.056L145.788 115.485Z" fill="#E98862"/>
<g opacity="0.2">
<path d="M154.654 111.37C154.681 111.399 154.718 111.416 154.758 111.418C154.798 111.42 154.836 111.407 154.866 111.38L160.351 106.569C160.366 106.556 160.378 106.54 160.386 106.522C160.395 106.505 160.4 106.485 160.402 106.466C160.403 106.446 160.4 106.426 160.394 106.407C160.387 106.389 160.377 106.371 160.364 106.357C160.351 106.342 160.335 106.33 160.317 106.321C160.299 106.312 160.28 106.307 160.26 106.306C160.24 106.305 160.22 106.307 160.201 106.314C160.183 106.32 160.165 106.33 160.15 106.343L154.666 111.155C154.652 111.168 154.639 111.184 154.631 111.201C154.622 111.219 154.617 111.238 154.616 111.258C154.614 111.278 154.617 111.298 154.623 111.316C154.63 111.335 154.64 111.352 154.653 111.367L154.654 111.37Z" fill="#0C0C0C"/>
</g>
<g opacity="0.2">
<path d="M156.72 113.836C156.747 113.865 156.784 113.882 156.824 113.884C156.863 113.886 156.902 113.873 156.932 113.847L163.052 108.477C163.067 108.464 163.079 108.448 163.088 108.431C163.097 108.413 163.102 108.393 163.103 108.374C163.104 108.354 163.102 108.334 163.095 108.315C163.089 108.297 163.079 108.28 163.066 108.265C163.038 108.236 163.001 108.219 162.961 108.216C162.922 108.214 162.883 108.226 162.852 108.251L156.731 113.621C156.716 113.634 156.704 113.65 156.696 113.667C156.687 113.685 156.682 113.704 156.68 113.724C156.679 113.744 156.682 113.764 156.688 113.782C156.695 113.801 156.705 113.818 156.718 113.833L156.72 113.836Z" fill="#0C0C0C"/>
</g>
<g opacity="0.2">
<path d="M158.941 116.52C158.968 116.549 159.005 116.566 159.044 116.568C159.084 116.57 159.123 116.557 159.153 116.531L164.035 112.248C164.05 112.235 164.062 112.219 164.071 112.201C164.079 112.183 164.085 112.164 164.086 112.144C164.087 112.125 164.084 112.105 164.078 112.086C164.071 112.067 164.061 112.05 164.048 112.035C164.035 112.02 164.019 112.008 164.001 112C163.983 111.991 163.964 111.986 163.944 111.985C163.924 111.983 163.904 111.986 163.886 111.993C163.867 111.999 163.85 112.009 163.835 112.022L158.952 116.305C158.937 116.318 158.925 116.334 158.917 116.352C158.908 116.369 158.903 116.389 158.901 116.408C158.9 116.428 158.903 116.448 158.909 116.467C158.916 116.485 158.926 116.503 158.939 116.517L158.941 116.52Z" fill="#0C0C0C"/>
</g>
<path d="M143.151 112.428L117.573 141.099L91.7268 118.841L76.8831 135.919L111.195 165.468L111.427 165.667C111.507 165.735 111.588 165.802 111.67 165.869C113.957 167.711 116.885 168.573 119.811 168.266C122.736 167.958 125.419 166.507 127.27 164.231L158.707 125.556L143.151 112.428Z" fill="#53AAD0"/>
<path d="M76.1204 113.758C76.0508 113.749 74.1451 120.888 59.2714 119.777C48.9744 119.009 46.4637 112.033 46.2278 112.033C47.3379 111.798 49.1408 111.554 49.6339 111.292C51.2553 110.425 52.4362 109.369 53.0309 107.104C53.4958 105.332 53.7327 98.5118 53.7327 95.0898L69.5774 98.6338C69.3566 102.494 67.8109 111.443 73.2286 113.026C74.13 113.288 75.101 113.529 76.1204 113.758Z" fill="#E98862"/>
<path d="M69.0298 106.222C62.7835 106.713 54.7595 104.088 53.2352 95.7924L51.8601 88.3077C50.3358 80.0124 53.4776 72.491 61.3243 71.0626C69.1707 69.6341 76.2715 75.2912 77.7955 83.5865L78.4044 86.8985C78.9882 90.083 80.1737 105.347 69.0298 106.222Z" fill="#E98862"/>
<path d="M74.8208 98.6071C73.6998 92.9995 73.1855 89.2583 73.2451 85.3112C74.8244 82.5537 74.4091 79.3892 74.05 78.0216C75.5979 78.8623 76.2453 78.955 77.7021 78.955C77.7021 78.955 75.0903 68.5216 66.2133 65.7142C64.5798 65.0819 60.4132 64.2831 54.8794 65.0385C50.1725 65.6811 38.57 69.1843 36.9111 82.1861V82.1936C36.8561 82.6248 35.7423 94.6043 33.5214 100.352C30.5354 108.078 26.344 110.479 26.4502 119.394C26.5869 130.861 47.7659 132.387 60.5415 131.53C73.3171 130.672 80.4457 126.491 80.5389 118.227C80.6417 108.965 77.0641 109.825 74.8208 98.6071Z" fill="#0A0A0A"/>
<path d="M74.8244 93.906C72.4398 94.3399 70.0401 92.1527 69.6042 89.7792C69.1683 87.4056 70.8605 85.7444 73.2451 85.3105L74.8244 93.906Z" fill="#E98862"/>
<path d="M92.2799 149.328C92.2705 149.328 92.261 149.327 92.2518 149.326C92.2322 149.322 92.2136 149.315 92.1969 149.304C92.1802 149.293 92.1659 149.279 92.1546 149.263C92.1434 149.246 92.1355 149.228 92.1314 149.209C92.1273 149.189 92.1271 149.169 92.1308 149.15L93.6529 141.122C93.6559 141.102 93.663 141.083 93.6736 141.066C93.6843 141.049 93.6983 141.034 93.7149 141.022C93.7314 141.01 93.7502 141.002 93.7701 140.998C93.79 140.993 93.8105 140.993 93.8305 140.997C93.8505 141 93.8696 141.008 93.8865 141.019C93.9034 141.031 93.9179 141.045 93.929 141.062C93.9402 141.079 93.9478 141.098 93.9514 141.118C93.955 141.138 93.9545 141.158 93.95 141.178L92.4281 149.206C92.4215 149.24 92.4031 149.271 92.3761 149.294C92.349 149.316 92.315 149.328 92.2799 149.328Z" fill="#0C0C0C"/>
<path d="M24.9367 189.92C24.8976 189.92 24.86 189.905 24.8318 189.878C24.8036 189.851 24.787 189.814 24.7855 189.776L22.9039 141.156C22.9031 141.136 22.9062 141.116 22.9131 141.098C22.92 141.079 22.9304 141.062 22.9439 141.047C22.9574 141.033 22.9736 141.021 22.9917 141.013C23.0097 141.004 23.0293 141 23.0491 140.999C23.0887 140.999 23.1268 141.014 23.1558 141.041C23.1849 141.068 23.2028 141.105 23.2061 141.144L25.088 189.764C25.0887 189.784 25.0856 189.803 25.0787 189.822C25.0718 189.84 25.0613 189.857 25.0478 189.872C25.0342 189.886 25.018 189.898 24.9999 189.906C24.9818 189.915 24.9623 189.919 24.9425 189.92H24.9367Z" fill="#0C0C0C"/>
<path d="M115.856 143.568C115.828 143.568 115.8 143.56 115.777 143.545C115.753 143.53 115.733 143.509 115.721 143.484C115.708 143.459 115.703 143.431 115.705 143.404C115.708 143.376 115.718 143.349 115.735 143.327L117.452 141.008C117.476 140.977 117.512 140.956 117.551 140.951C117.59 140.945 117.63 140.955 117.662 140.979C117.694 141.002 117.716 141.037 117.722 141.076C117.728 141.115 117.719 141.155 117.696 141.187L115.977 143.507C115.963 143.525 115.945 143.541 115.924 143.551C115.903 143.562 115.88 143.568 115.856 143.568Z" fill="#0C0C0C"/>
<path d="M6.88624 207.208H309.273C309.354 207.208 309.431 207.176 309.487 207.119C309.544 207.063 309.576 206.986 309.576 206.907C309.576 206.827 309.544 206.75 309.487 206.694C309.431 206.637 309.354 206.605 309.273 206.605H6.88624C6.80601 206.605 6.72907 206.637 6.67234 206.694C6.61561 206.75 6.58374 206.827 6.58374 206.907C6.58374 206.986 6.61561 207.063 6.67234 207.119C6.72907 207.176 6.80601 207.208 6.88624 207.208Z" fill="#292A2E"/>
</g>
<defs>
<clipPath id="clip0_2316_73290">
<rect width="320" height="207" fill="white" transform="translate(0 0.208008)"/>
</clipPath>
</defs>
</svg>
