<svg width="15" height="21" viewBox="0 0 15 21" fill="none" xmlns="http://www.w3.org/2000/svg">
<path d="M2.5 0.542969H8.75V5.54297C8.75 6.24609 9.29688 6.79297 10 6.79297H15V18.043C15 19.4492 13.8672 20.543 12.5 20.543H2.5C1.09375 20.543 0 19.4492 0 18.043V3.04297C0 1.67578 1.09375 0.542969 2.5 0.542969ZM10 0.542969L15 5.54297H10V0.542969ZM8.4375 9.60547H8.39844C8.39844 9.09766 8.00781 8.66797 7.46094 8.66797C6.95312 8.66797 6.52344 9.09766 6.52344 9.60547V13.6289L5.3125 12.418C4.96094 12.0273 4.375 12.0273 4.02344 12.418C3.63281 12.7695 3.63281 13.3555 4.02344 13.707L6.83594 16.5195C7.1875 16.9102 7.77344 16.9102 8.125 16.5195L10.9375 13.707C11.3281 13.3555 11.3281 12.7695 10.9375 12.418C10.5859 12.0273 10 12.0273 9.64844 12.418L8.4375 13.6289V9.60547Z" fill="#53AAD0"/>
</svg>
