<svg width="18" height="17" viewBox="0 0 18 17" fill="none" xmlns="http://www.w3.org/2000/svg">
<path d="M0 2.83203C0 1.60156 0.984375 0.582031 2.25 0.582031H15.75C16.9805 0.582031 18 1.60156 18 2.83203V14.082C18 15.3477 16.9805 16.332 15.75 16.332H2.25C0.984375 16.332 0 15.3477 0 14.082V2.83203ZM11.3555 6.59375C11.2148 6.34766 10.9336 6.20703 10.6875 6.20703C10.4062 6.20703 10.125 6.34766 9.98438 6.59375L6.92578 11.0938L5.97656 9.89844C5.83594 9.72266 5.58984 9.58203 5.34375 9.58203C5.0625 9.58203 4.81641 9.72266 4.67578 9.89844L2.42578 12.7109C2.21484 12.9922 2.17969 13.3438 2.32031 13.625C2.46094 13.9062 2.74219 14.082 3.09375 14.082H6.46875H7.59375H14.9062C15.1875 14.082 15.5039 13.9414 15.6445 13.6602C15.7852 13.3789 15.75 13.0273 15.5742 12.7812L11.3555 6.59375ZM3.9375 6.20703C4.53516 6.20703 5.0625 5.89062 5.37891 5.36328C5.69531 4.87109 5.69531 4.20312 5.37891 3.67578C5.0625 3.18359 4.53516 2.83203 3.9375 2.83203C3.30469 2.83203 2.77734 3.18359 2.46094 3.67578C2.14453 4.20312 2.14453 4.87109 2.46094 5.36328C2.77734 5.89062 3.30469 6.20703 3.9375 6.20703Z" fill="#242424"/>
</svg>
