<svg width="16" height="19" viewBox="0 0 16 19" fill="none" xmlns="http://www.w3.org/2000/svg">
<path d="M4.74609 1.50781C4.92188 1.12109 5.30859 0.875 5.73047 0.875H9.98438C10.4062 0.875 10.793 1.12109 10.9688 1.50781L11.25 2H14.625C15.2227 2 15.75 2.52734 15.75 3.125C15.75 3.75781 15.2227 4.25 14.625 4.25H1.125C0.492188 4.25 0 3.75781 0 3.125C0 2.52734 0.492188 2 1.125 2H4.5L4.74609 1.50781ZM14.625 5.375L13.8516 17.293C13.8164 18.207 13.0781 18.875 12.1641 18.875H3.55078C2.63672 18.875 1.89844 18.207 1.86328 17.293L1.125 5.375H14.625Z" fill="#242424"/>
</svg>
