<svg width="135" height="244" viewBox="0 0 135 244" fill="none" xmlns="http://www.w3.org/2000/svg">
<path d="M216.715 171.441C255.781 135.5 249.107 89.2395 240.887 70.6018C208.17 156.059 157.383 158.989 155.186 156.303C152.989 153.617 179.358 150.687 175.94 130.666C173.205 114.649 199.054 91.5996 212.32 82.0773C199.949 80.4495 171.398 84.8119 156.163 115.283C140.927 145.755 115.469 158.744 104.644 161.43C146.064 130.559 153.318 95.6651 151.768 82.0773C137.704 101.22 122.631 109.098 116.852 110.644C139.12 93.4552 141.92 61.3234 140.536 47.4061C160.46 22.7945 189.043 25.9198 200.844 30.5589C186.032 13.6303 146.689 -14.2205 107.818 9.80489C68.9472 33.8303 52.0678 71.7409 48.487 87.6931C77.2005 57.8076 102.609 56.8469 111.725 60.1023C34.9599 91.5504 5.67684 195.776 0.630917 243.957C28.9538 207.821 60.9392 194.718 73.3916 192.683C60.4998 200.106 54.3469 211.402 52.8819 216.123C115.583 214.365 164.302 187.719 180.823 174.615C162.658 197.078 137.606 209.53 127.352 212.949C140.862 214.088 177.649 207.382 216.715 171.441Z" fill="#FF0000"/>
</svg>
