<svg width="131" height="248" viewBox="0 0 131 248" fill="none" xmlns="http://www.w3.org/2000/svg">
<path d="M58.4409 216.716C22.5002 255.782 -23.7605 249.108 -42.3983 240.888C43.0588 208.17 45.9885 157.384 43.3029 155.187C40.6172 152.989 37.6869 179.359 17.6656 175.94C1.64851 173.206 -21.4005 199.054 -30.9228 212.321C-32.5506 199.95 -28.1882 171.399 2.28334 156.163C32.7548 140.927 45.7444 115.469 48.4303 104.645C17.5587 146.065 -17.3349 153.319 -30.9228 151.768C-11.7804 137.704 -3.90213 122.631 -2.35576 116.853C-19.5448 139.121 -51.6766 141.92 -65.5939 140.537C-90.2055 160.46 -87.0802 189.044 -82.4411 200.845C-99.3697 186.032 -127.221 146.69 -103.195 107.819C-79.1698 68.9478 -41.2591 52.0684 -25.3069 48.4875C-55.1925 77.201 -56.1531 102.61 -52.8978 111.725C-21.4496 34.9604 82.7755 5.67739 130.957 0.631467C94.821 28.9543 81.7177 60.9398 79.6831 73.3922C87.1056 60.5004 98.4022 54.3475 103.123 52.8825C101.365 115.583 74.7185 164.302 61.6151 180.824C84.078 162.658 96.5303 137.607 99.9486 127.352C101.088 140.862 94.3817 177.65 58.4409 216.716Z" fill="#FF0000"/>
</svg>
