<svg width="142" height="267" viewBox="0 0 142 267" fill="none" xmlns="http://www.w3.org/2000/svg">
<path d="M94.0181 222.82C101.677 192.661 -7.49554 106.207 -63.0391 66.7496L19.2979 185.222C41.0135 210.321 86.3593 252.979 94.0181 222.82Z" fill="#53AAD0"/>
<path d="M-40.2371 159.716C-53.7633 138.607 -69.3932 103.352 -75.5174 88.3627C-83.7448 117.972 -81.8006 135.72 -80.85 162.869C-80.0895 184.589 -63.0795 191.602 -54.6696 192.393C-44.2228 190.297 -26.7108 180.826 -40.2371 159.716Z" fill="#53AAD0"/>
<path d="M3.94884 183.01C3.03032 175.387 -12.8021 165.95 -20.6035 162.185C-17.2105 191.631 -7.30089 196.096 -2.77023 194.648C-0.147823 193.945 4.86736 190.634 3.94884 183.01Z" fill="#53AAD0"/>
<path d="M-19.8214 217.011C-19.7858 216.617 -19.6919 216.278 -19.5335 216.004C-19.6271 216.331 -19.7231 216.667 -19.8214 217.011C-20.3034 222.355 -10.0917 238.042 -4.54539 245.716C-1.40326 253.072 1.02457 267.552 -14.4012 266.627C-33.2691 265.494 -24.295 232.681 -19.8214 217.011Z" fill="#53AAD0"/>
<path d="M64.1449 140.179C64.2481 140.365 64.3576 140.557 64.4733 140.756C65.9068 142.064 72.2995 142.703 90.1118 137.438C110.426 131.432 115.201 144.534 115.05 151.836C115.495 158.743 112.249 171.277 95.6987 166.155C79.6202 161.18 68.4197 147.513 64.4733 140.756C64.272 140.572 64.1685 140.375 64.1449 140.179Z" fill="#53AAD0"/>
<path d="M89.6059 117.197C50.4379 122.07 -17.8166 79.9285 -47.0478 58.2484C27.964 83.8228 27.8692 78.2279 82.3657 58.7069C125.963 43.0901 139.838 66.0269 141.326 79.4474C140.406 89.9998 128.774 112.323 89.6059 117.197Z" fill="#53AAD0"/>
<path d="M39.7731 51.8504C19.7877 69.5725 -30.9087 52.0516 -53.7587 41.0758C2.91956 -3.34107 29.2588 -2.2483 35.3436 3.8502C45.1474 12.466 59.7586 34.1283 39.7731 51.8504Z" fill="#53AAD0"/>
<path d="M97.5351 20.9142C87.0179 29.9158 67.4662 17.9626 59.005 10.8608C69.289 11.478 87.1259 5.66805 94.7589 2.68594C100.066 5.01136 108.052 11.9126 97.5351 20.9142Z" fill="#53AAD0"/>
</svg>
