<svg width="128" height="242" viewBox="0 0 128 242" fill="none" xmlns="http://www.w3.org/2000/svg">
<path d="M4.86382 126.088C27.153 147.8 156.611 96.4814 218.553 68.1079L74.7847 80.1776C42.1906 86.4344 -17.4253 104.376 4.86382 126.088Z" fill="#53AAD0"/>
<path d="M126.641 41.3716C151.685 40.2124 190.032 44.3041 206.075 46.4948C184.546 24.5651 168.204 17.3749 144.217 4.62345C125.027 -5.57774 110.448 5.64689 105.558 12.5343C102.15 22.6298 101.596 42.5309 126.641 41.3716Z" fill="#53AAD0"/>
<path d="M84.3745 67.9907C91.4362 71.0072 107.525 62.0141 114.686 57.1405C87.4883 45.3558 78.6666 51.7052 77.6555 56.353C76.9528 58.9754 77.3129 64.9743 84.3745 67.9907Z" fill="#53AAD0"/>
<path d="M66.814 30.4047C67.138 30.6328 67.3839 30.8832 67.5424 31.1577C67.3059 30.913 67.063 30.6619 66.814 30.4047C62.4274 27.3155 43.7364 28.3157 34.3168 29.2816C26.3753 28.3248 12.6211 23.1872 21.1358 10.291C31.5505 -5.48277 55.4805 18.6956 66.814 30.4047Z" fill="#53AAD0"/>
<path d="M91.3693 141.538C91.1567 141.534 90.9355 141.533 90.706 141.534C88.8563 142.121 85.1062 147.338 80.7603 165.396C75.8039 185.992 62.0697 183.577 55.8222 179.794C49.6175 176.727 40.3858 167.648 53.0964 155.876C65.4449 144.439 82.8807 141.573 90.706 141.534C90.9658 141.451 91.1881 141.46 91.3693 141.538Z" fill="#53AAD0"/>
<path d="M98.5423 175.079C113.906 138.721 184.529 100.682 217.92 86.2073C158.266 138.382 163.159 141.098 152.816 198.053C144.542 243.618 117.741 244.166 105.374 238.745C96.6954 232.671 83.179 211.436 98.5423 175.079Z" fill="#53AAD0"/>
<path d="M180.05 164.595C174.695 138.427 215.217 103.283 236.147 88.9818C246.274 160.275 232.158 182.539 223.834 184.759C211.471 188.942 185.405 190.764 180.05 164.595Z" fill="#53AAD0"/>
<path d="M177.961 230.087C175.424 216.478 195.551 205.522 205.932 201.746C200.256 210.343 196.369 228.695 195.135 236.797C190.467 240.231 180.498 243.696 177.961 230.087Z" fill="#53AAD0"/>
</svg>
